<svg fill="#092f7e" xmlns="http://www.w3.org/2000/svg" viewBox="0 0 511.998 511.998"><path d="M167.974 350.473c21.086 29.73 42.138 56.32 56.09 73.446 2.031 2.492 3.934 4.804 5.777 7.031h-42.103c-4.713 0-8.533 3.82-8.533 8.533s3.82 8.533 8.533 8.533H324.27c4.713 0 8.533-3.82 8.533-8.533s-3.82-8.533-8.533-8.533h-42.103c1.843-2.227 3.746-4.54 5.786-7.031 13.943-17.067 34.987-43.716 56.081-73.446a749.756 749.756 0 0056.371-90.854c17.425-34.219 26.266-62.626 26.266-84.437a170.55 170.55 0 00-49.98-120.841 8.532 8.532 0 10-12.075 12.057 153.55 153.55 0 0144.988 108.783c0 19.098-8.209 44.902-24.405 76.689a732.814 732.814 0 01-55.091 88.747c-20.804 29.346-41.6 55.637-55.381 72.533a1511.437 1511.437 0 01-12.22 14.78 8.642 8.642 0 01-13.004 0 1513.93 1513.93 0 01-12.22-14.78c-13.781-16.887-34.577-43.179-55.381-72.533a732.814 732.814 0 01-55.091-88.747c-16.213-31.787-24.405-57.591-24.405-76.689-.005-61.809 36.959-117.627 93.867-141.747a154.58 154.58 0 01119.552 0 8.535 8.535 0 106.664-15.718c-86.898-36.652-187.056 4.062-223.735 90.948a170.04 170.04 0 00-13.414 66.517c0 21.811 8.841 50.219 26.266 84.48a749.234 749.234 0 0056.368 90.812z"/><path d="M256.003 98.151c4.713 0 8.533-3.82 8.533-8.533s-3.82-8.533-8.533-8.533c-40.71-.001-75.752 28.757-83.695 68.685-7.943 39.928 13.426 79.906 51.037 95.486 37.611 15.58 80.99 2.421 103.608-31.428 22.618-33.849 18.175-78.962-10.611-107.749a8.534 8.534 0 10-12.066 12.066c23.03 23.029 26.585 59.118 8.492 86.198-18.093 27.08-52.796 37.608-82.885 25.146-30.089-12.462-47.185-44.444-40.833-76.387s34.385-54.95 66.953-54.951zm252.783 371.806l-52.48-93.867a26.522 26.522 0 00-23.219-13.406H372.27c-4.713 0-8.533 3.82-8.533 8.533s3.82 8.533 8.533 8.533h60.817a9.464 9.464 0 018.337 4.659l52.463 93.867a7.68 7.68 0 01-.077 7.885 9.387 9.387 0 01-8.26 4.523H26.457a9.387 9.387 0 01-8.252-4.523 7.681 7.681 0 01-.077-7.885l52.463-93.867a9.454 9.454 0 018.328-4.659h60.817c4.713 0 8.533-3.82 8.533-8.533s-3.82-8.533-8.533-8.533H78.92a26.537 26.537 0 00-23.236 13.406L3.212 469.957a24.748 24.748 0 00.265 24.841 26.284 26.284 0 0022.98 12.954H485.55a26.282 26.282 0 0022.972-12.954 24.746 24.746 0 00.264-24.841z"/><path d="M418.137 405.351h-34.133a8.583 8.583 0 00-4.736 1.434l-25.6 17.067a8.535 8.535 0 009.472 14.2l23.424-15.633h31.573a8.533 8.533 0 008.533-8.533 8.533 8.533 0 00-8.533-8.535zm-51.2 59.733a8.533 8.533 0 008.533 8.533h68.267c4.713 0 8.533-3.82 8.533-8.533s-3.82-8.533-8.533-8.533H375.47a8.533 8.533 0 00-8.533 8.533zm-213.334-25.6a8.533 8.533 0 004.745-15.633l-25.6-17.067a8.586 8.586 0 00-4.745-1.434H93.87a8.533 8.533 0 000 17.066h31.573l23.45 15.633a8.516 8.516 0 004.71 1.435zM68.27 456.551c-4.713 0-8.533 3.82-8.533 8.533s3.82 8.533 8.533 8.533h68.267c4.713 0 8.533-3.82 8.533-8.533s-3.82-8.533-8.533-8.533H68.27z"/></svg>