<svg height="816" viewBox="10.624 9.455 499.429 150.728" width="2500" xmlns="http://www.w3.org/2000/svg"><path d="M133.039 24.612l-9.945 43.996-9.947-43.996H71.516l-9.91 43.832-9.908-43.832H10.624l26.98 119.347h42.663l10.956-48.464 10.956 48.464h44.953L174.11 24.612zm214.516.072L320.129 143.96h73.664l9.417-40.76h-25.275l18.21-78.515zm84.523 0L404.41 143.96h48.403l8.4-36.231h29.575l7.867-33.964h-29.507l2.933-12.852h29.574l8.398-36.228zM189.097 9.455h150.905l-34.656 150.728H154.443z" fill="#777"/><path d="M182.35 84.785c0-38.3 33.192-68.856 72.415-64.528 29.811 3.289 53.908 27.36 57.2 57.137 4.33 39.177-26.262 72.327-64.603 72.327-35.906 0-65.012-29.07-65.012-64.936z" fill="#e40019"/></svg>